<?xml version="1.0" encoding="UTF-8" standalone="no"?>
<!DOCTYPE svg PUBLIC "-//W3C//DTD SVG 1.1//EN"
 "http://www.w3.org/Graphics/SVG/1.1/DTD/svg11.dtd">
<!-- Generated by graphviz version 2.38.0 (20140413.2041)
 -->
<!-- Title: G Pages: 1 -->
<svg width="655pt" height="2030pt"
 viewBox="0.00 0.00 654.88 2030.00" xmlns="http://www.w3.org/2000/svg" xmlns:xlink="http://www.w3.org/1999/xlink">
<g id="graph0" class="graph" transform="scale(1 1) rotate(0) translate(4 2026)">
<title>G</title>
<polygon fill="white" stroke="none" points="-4,4 -4,-2026 650.882,-2026 650.882,4 -4,4"/>
<g id="clust1" class="cluster"><title>cluster_Global</title>
<path fill="none" stroke="gray" d="M20,-98C20,-98 626.882,-98 626.882,-98 632.882,-98 638.882,-104 638.882,-110 638.882,-110 638.882,-2002 638.882,-2002 638.882,-2008 632.882,-2014 626.882,-2014 626.882,-2014 20,-2014 20,-2014 14,-2014 8,-2008 8,-2002 8,-2002 8,-110 8,-110 8,-104 14,-98 20,-98"/>
<text text-anchor="middle" x="323.441" y="-2001.2" font-family="Times,serif" font-size="11.00" fill="gray">Global</text>
</g>
<g id="clust2" class="cluster"><title>cluster_\Dephpug</title>
<path fill="none" stroke="gray" d="M28,-106C28,-106 618.882,-106 618.882,-106 624.882,-106 630.882,-112 630.882,-118 630.882,-118 630.882,-1974 630.882,-1974 630.882,-1980 624.882,-1986 618.882,-1986 618.882,-1986 28,-1986 28,-1986 22,-1986 16,-1980 16,-1974 16,-1974 16,-118 16,-118 16,-112 22,-106 28,-106"/>
<text text-anchor="middle" x="323.441" y="-1973.2" font-family="Times,serif" font-size="11.00" fill="gray">Dephpug</text>
</g>
<g id="clust3" class="cluster"><title>cluster_\Dephpug\Parser</title>
<path fill="none" stroke="gray" d="M482.882,-780C482.882,-780 605.882,-780 605.882,-780 611.882,-780 617.882,-786 617.882,-792 617.882,-792 617.882,-894 617.882,-894 617.882,-900 611.882,-906 605.882,-906 605.882,-906 482.882,-906 482.882,-906 476.882,-906 470.882,-900 470.882,-894 470.882,-894 470.882,-792 470.882,-792 470.882,-786 476.882,-780 482.882,-780"/>
<text text-anchor="middle" x="544.382" y="-893.2" font-family="Times,serif" font-size="11.00" fill="gray">Parser</text>
</g>
<g id="clust4" class="cluster"><title>cluster_\Dephpug\Interfaces</title>
<path fill="none" stroke="gray" d="M36,-1616C36,-1616 132,-1616 132,-1616 138,-1616 144,-1622 144,-1628 144,-1628 144,-1784 144,-1784 144,-1790 138,-1796 132,-1796 132,-1796 36,-1796 36,-1796 30,-1796 24,-1790 24,-1784 24,-1784 24,-1628 24,-1628 24,-1622 30,-1616 36,-1616"/>
<text text-anchor="middle" x="84" y="-1783.2" font-family="Times,serif" font-size="11.00" fill="gray">Interfaces</text>
</g>
<g id="clust5" class="cluster"><title>cluster_\Dephpug\Command</title>
<path fill="none" stroke="gray" d="M489.382,-1508C489.382,-1508 599.382,-1508 599.382,-1508 605.382,-1508 611.382,-1514 611.382,-1520 611.382,-1520 611.382,-1946 611.382,-1946 611.382,-1952 605.382,-1958 599.382,-1958 599.382,-1958 489.382,-1958 489.382,-1958 483.382,-1958 477.382,-1952 477.382,-1946 477.382,-1946 477.382,-1520 477.382,-1520 477.382,-1514 483.382,-1508 489.382,-1508"/>
<text text-anchor="middle" x="544.382" y="-1945.2" font-family="Times,serif" font-size="11.00" fill="gray">Command</text>
</g>
<g id="clust6" class="cluster"><title>cluster_\Dephpug\Exporter</title>
<path fill="none" stroke="gray" d="M272.941,-914C272.941,-914 610.882,-914 610.882,-914 616.882,-914 622.882,-920 622.882,-926 622.882,-926 622.882,-1488 622.882,-1488 622.882,-1494 616.882,-1500 610.882,-1500 610.882,-1500 272.941,-1500 272.941,-1500 266.941,-1500 260.941,-1494 260.941,-1488 260.941,-1488 260.941,-926 260.941,-926 260.941,-920 266.941,-914 272.941,-914"/>
<text text-anchor="middle" x="441.912" y="-1487.2" font-family="Times,serif" font-size="11.00" fill="gray">Exporter</text>
</g>
<g id="clust7" class="cluster"><title>cluster_\Dephpug\Exporter\Type</title>
<path fill="none" stroke="gray" d="M485.882,-968C485.882,-968 602.882,-968 602.882,-968 608.882,-968 614.882,-974 614.882,-980 614.882,-980 614.882,-1460 614.882,-1460 614.882,-1466 608.882,-1472 602.882,-1472 602.882,-1472 485.882,-1472 485.882,-1472 479.882,-1472 473.882,-1466 473.882,-1460 473.882,-1460 473.882,-980 473.882,-980 473.882,-974 479.882,-968 485.882,-968"/>
<text text-anchor="middle" x="544.382" y="-1459.2" font-family="Times,serif" font-size="11.00" fill="gray">Type</text>
</g>
<g id="clust8" class="cluster"><title>cluster_\Dephpug\Exception</title>
<path fill="none" stroke="gray" d="M489.382,-592C489.382,-592 599.382,-592 599.382,-592 605.382,-592 611.382,-598 611.382,-604 611.382,-604 611.382,-760 611.382,-760 611.382,-766 605.382,-772 599.382,-772 599.382,-772 489.382,-772 489.382,-772 483.382,-772 477.382,-766 477.382,-760 477.382,-760 477.382,-604 477.382,-604 477.382,-598 483.382,-592 489.382,-592"/>
<text text-anchor="middle" x="544.382" y="-759.2" font-family="Times,serif" font-size="11.00" fill="gray">Exception</text>
</g>
<!-- \\Dephpug\\Parser\\InitMessageEvent -->
<g id="node1" class="node"><title>\\Dephpug\\Parser\\InitMessageEvent</title>
<polygon fill="none" stroke="black" points="606.882,-878 481.882,-878 481.882,-842 606.882,-842 606.882,-878"/>
<text text-anchor="middle" x="544.382" y="-857.2" font-family="Courier,monospace" font-size="11.00">InitMessageEvent</text>
</g>
<!-- \\Dephpug\\MessageEvent -->
<g id="node38" class="node"><title>\\Dephpug\\MessageEvent</title>
<ellipse fill="none" stroke="black" cx="307.441" cy="-72" rx="99.3824" ry="18"/>
<text text-anchor="middle" x="307.441" y="-68.3" font-family="Times,serif" font-size="14.00" fill="gray">\Dephpug\MessageEvent</text>
</g>
<!-- \\Dephpug\\Parser\\InitMessageEvent&#45;&gt;\\Dephpug\\MessageEvent -->
<g id="edge1" class="edge"><title>\\Dephpug\\Parser\\InitMessageEvent&#45;&gt;\\Dephpug\\MessageEvent</title>
<path fill="none" stroke="black" d="M481.782,-842.56C477.748,-839.824 474.043,-836.66 470.882,-833 372.319,-718.86 322.122,-225 310.896,-100.554"/>
<polygon fill="none" stroke="black" points="314.357,-99.9666 309.985,-90.3159 307.385,-100.587 314.357,-99.9666"/>
</g>
<!-- \\Dephpug\\Parser\\CloseMessageEvent -->
<g id="node2" class="node"><title>\\Dephpug\\Parser\\CloseMessageEvent</title>
<polygon fill="none" stroke="black" points="609.882,-824 478.882,-824 478.882,-788 609.882,-788 609.882,-824"/>
<text text-anchor="middle" x="544.382" y="-803.2" font-family="Courier,monospace" font-size="11.00">CloseMessageEvent</text>
</g>
<!-- \\Dephpug\\Parser\\CloseMessageEvent&#45;&gt;\\Dephpug\\MessageEvent -->
<g id="edge5" class="edge"><title>\\Dephpug\\Parser\\CloseMessageEvent&#45;&gt;\\Dephpug\\MessageEvent</title>
<path fill="none" stroke="black" d="M484.888,-787.989C479.652,-784.638 474.844,-780.678 470.882,-776 380.882,-669.713 324.791,-218.084 311.503,-100.225"/>
<polygon fill="none" stroke="black" points="314.97,-99.7344 310.384,-90.1837 308.013,-100.51 314.97,-99.7344"/>
</g>
<!-- \\Dephpug\\Interfaces\\iCommand -->
<g id="node3" class="node"><title>\\Dephpug\\Interfaces\\iCommand</title>
<polygon fill="none" stroke="black" points="119.5,-1768 48.5,-1768 48.5,-1732 119.5,-1732 119.5,-1768"/>
<text text-anchor="middle" x="84" y="-1747.2" font-family="Courier,monospace" font-size="11.00">iCommand</text>
</g>
<!-- \\Dephpug\\Interfaces\\iCore -->
<g id="node4" class="node"><title>\\Dephpug\\Interfaces\\iCore</title>
<polygon fill="none" stroke="black" points="111,-1714 57,-1714 57,-1678 111,-1678 111,-1714"/>
<text text-anchor="middle" x="84" y="-1693.2" font-family="Courier,monospace" font-size="11.00">iCore</text>
</g>
<!-- \\Dephpug\\Interfaces\\iMessageEvent -->
<g id="node5" class="node"><title>\\Dephpug\\Interfaces\\iMessageEvent</title>
<polygon fill="none" stroke="black" points="136,-1660 32,-1660 32,-1624 136,-1624 136,-1660"/>
<text text-anchor="middle" x="84" y="-1639.2" font-family="Courier,monospace" font-size="11.00">iMessageEvent</text>
</g>
<!-- \\Dephpug\\Command\\GetValueCommand -->
<g id="node6" class="node"><title>\\Dephpug\\Command\\GetValueCommand</title>
<polygon fill="none" stroke="black" points="603.382,-1930 485.382,-1930 485.382,-1894 603.382,-1894 603.382,-1930"/>
<text text-anchor="middle" x="544.382" y="-1909.2" font-family="Courier,monospace" font-size="11.00">GetValueCommand</text>
</g>
<!-- \\Dephpug\\Command -->
<g id="node30" class="node"><title>\\Dephpug\\Command</title>
<polygon fill="none" stroke="black" points="349.441,-1741 265.441,-1741 265.441,-1705 349.441,-1705 349.441,-1741"/>
<text text-anchor="start" x="273.441" y="-1726.2" font-family="Courier,monospace" font-size="11.00">«abstract»</text>
<text text-anchor="start" x="283.441" y="-1714.2" font-family="Courier,monospace" font-size="11.00">Command</text>
</g>
<!-- \\Dephpug\\Command\\GetValueCommand&#45;&gt;\\Dephpug\\Command -->
<g id="edge2" class="edge"><title>\\Dephpug\\Command\\GetValueCommand&#45;&gt;\\Dephpug\\Command</title>
<path fill="none" stroke="black" d="M487.184,-1893.86C481.509,-1891.21 475.97,-1888.26 470.882,-1885 411.6,-1846.98 356.713,-1784.19 328.433,-1748.99"/>
<polygon fill="none" stroke="black" points="331.114,-1746.74 322.155,-1741.09 325.632,-1751.09 331.114,-1746.74"/>
</g>
<!-- \\Dephpug\\Command\\StepIntoCommand -->
<g id="node7" class="node"><title>\\Dephpug\\Command\\StepIntoCommand</title>
<polygon fill="none" stroke="black" points="603.382,-1876 485.382,-1876 485.382,-1840 603.382,-1840 603.382,-1876"/>
<text text-anchor="middle" x="544.382" y="-1855.2" font-family="Courier,monospace" font-size="11.00">StepIntoCommand</text>
</g>
<!-- \\Dephpug\\Command\\StepIntoCommand&#45;&gt;\\Dephpug\\Command -->
<g id="edge4" class="edge"><title>\\Dephpug\\Command\\StepIntoCommand&#45;&gt;\\Dephpug\\Command</title>
<path fill="none" stroke="black" d="M490.494,-1839.93C483.79,-1837.17 477.104,-1834.17 470.882,-1831 422.833,-1806.49 371.697,-1770.68 339.912,-1747.11"/>
<polygon fill="none" stroke="black" points="341.976,-1744.28 331.871,-1741.1 337.787,-1749.89 341.976,-1744.28"/>
</g>
<!-- \\Dephpug\\Command\\NextCommand -->
<g id="node8" class="node"><title>\\Dephpug\\Command\\NextCommand</title>
<polygon fill="none" stroke="black" points="589.882,-1822 498.882,-1822 498.882,-1786 589.882,-1786 589.882,-1822"/>
<text text-anchor="middle" x="544.382" y="-1801.2" font-family="Courier,monospace" font-size="11.00">NextCommand</text>
</g>
<!-- \\Dephpug\\Command\\NextCommand&#45;&gt;\\Dephpug\\Command -->
<g id="edge7" class="edge"><title>\\Dephpug\\Command\\NextCommand&#45;&gt;\\Dephpug\\Command</title>
<path fill="none" stroke="black" d="M498.639,-1788.57C458.827,-1774.85 400.642,-1754.79 359.125,-1740.47"/>
<polygon fill="none" stroke="black" points="360.074,-1737.1 349.479,-1737.15 357.792,-1743.72 360.074,-1737.1"/>
</g>
<!-- \\Dephpug\\Command\\QuitCommand -->
<g id="node9" class="node"><title>\\Dephpug\\Command\\QuitCommand</title>
<polygon fill="none" stroke="black" points="589.882,-1768 498.882,-1768 498.882,-1732 589.882,-1732 589.882,-1768"/>
<text text-anchor="middle" x="544.382" y="-1747.2" font-family="Courier,monospace" font-size="11.00">QuitCommand</text>
</g>
<!-- \\Dephpug\\Command\\QuitCommand&#45;&gt;\\Dephpug\\Command -->
<g id="edge11" class="edge"><title>\\Dephpug\\Command\\QuitCommand&#45;&gt;\\Dephpug\\Command</title>
<path fill="none" stroke="black" d="M498.639,-1744.86C458.995,-1740.3 401.133,-1733.65 359.651,-1728.89"/>
<polygon fill="none" stroke="black" points="359.813,-1725.38 349.479,-1727.72 359.014,-1732.34 359.813,-1725.38"/>
</g>
<!-- \\Dephpug\\Command\\EvalCommand -->
<g id="node10" class="node"><title>\\Dephpug\\Command\\EvalCommand</title>
<polygon fill="none" stroke="black" points="589.882,-1714 498.882,-1714 498.882,-1678 589.882,-1678 589.882,-1714"/>
<text text-anchor="middle" x="544.382" y="-1693.2" font-family="Courier,monospace" font-size="11.00">EvalCommand</text>
</g>
<!-- \\Dephpug\\Command\\EvalCommand&#45;&gt;\\Dephpug\\Command -->
<g id="edge12" class="edge"><title>\\Dephpug\\Command\\EvalCommand&#45;&gt;\\Dephpug\\Command</title>
<path fill="none" stroke="black" d="M498.639,-1701.14C458.995,-1705.7 401.133,-1712.35 359.651,-1717.11"/>
<polygon fill="none" stroke="black" points="359.014,-1713.66 349.479,-1718.28 359.813,-1720.62 359.014,-1713.66"/>
</g>
<!-- \\Dephpug\\Command\\DbgpCommand -->
<g id="node11" class="node"><title>\\Dephpug\\Command\\DbgpCommand</title>
<polygon fill="none" stroke="black" points="589.882,-1660 498.882,-1660 498.882,-1624 589.882,-1624 589.882,-1660"/>
<text text-anchor="middle" x="544.382" y="-1639.2" font-family="Courier,monospace" font-size="11.00">DbgpCommand</text>
</g>
<!-- \\Dephpug\\Command\\DbgpCommand&#45;&gt;\\Dephpug\\Command -->
<g id="edge16" class="edge"><title>\\Dephpug\\Command\\DbgpCommand&#45;&gt;\\Dephpug\\Command</title>
<path fill="none" stroke="black" d="M498.639,-1657.43C458.827,-1671.15 400.642,-1691.21 359.125,-1705.53"/>
<polygon fill="none" stroke="black" points="357.792,-1702.28 349.479,-1708.85 360.074,-1708.9 357.792,-1702.28"/>
</g>
<!-- \\Dephpug\\Command\\SetValueCommand -->
<g id="node12" class="node"><title>\\Dephpug\\Command\\SetValueCommand</title>
<polygon fill="none" stroke="black" points="603.382,-1606 485.382,-1606 485.382,-1570 603.382,-1570 603.382,-1606"/>
<text text-anchor="middle" x="544.382" y="-1585.2" font-family="Courier,monospace" font-size="11.00">SetValueCommand</text>
</g>
<!-- \\Dephpug\\Command\\SetValueCommand&#45;&gt;\\Dephpug\\Command -->
<g id="edge22" class="edge"><title>\\Dephpug\\Command\\SetValueCommand&#45;&gt;\\Dephpug\\Command</title>
<path fill="none" stroke="black" d="M490.494,-1606.07C483.79,-1608.83 477.104,-1611.83 470.882,-1615 422.833,-1639.51 371.697,-1675.32 339.912,-1698.89"/>
<polygon fill="none" stroke="black" points="337.787,-1696.11 331.871,-1704.9 341.976,-1701.72 337.787,-1696.11"/>
</g>
<!-- \\Dephpug\\Command\\ContinueCommand -->
<g id="node13" class="node"><title>\\Dephpug\\Command\\ContinueCommand</title>
<polygon fill="none" stroke="black" points="603.382,-1552 485.382,-1552 485.382,-1516 603.382,-1516 603.382,-1552"/>
<text text-anchor="middle" x="544.382" y="-1531.2" font-family="Courier,monospace" font-size="11.00">ContinueCommand</text>
</g>
<!-- \\Dephpug\\Command\\ContinueCommand&#45;&gt;\\Dephpug\\Command -->
<g id="edge24" class="edge"><title>\\Dephpug\\Command\\ContinueCommand&#45;&gt;\\Dephpug\\Command</title>
<path fill="none" stroke="black" d="M487.184,-1552.14C481.509,-1554.79 475.97,-1557.74 470.882,-1561 411.6,-1599.02 356.713,-1661.81 328.433,-1697.01"/>
<polygon fill="none" stroke="black" points="325.632,-1694.91 322.155,-1704.91 331.114,-1699.26 325.632,-1694.91"/>
</g>
<!-- \\Dephpug\\Exporter\\Type\\ObjectExporter -->
<g id="node14" class="node"><title>\\Dephpug\\Exporter\\Type\\ObjectExporter</title>
<polygon fill="none" stroke="black" points="599.882,-1444 488.882,-1444 488.882,-1408 599.882,-1408 599.882,-1444"/>
<text text-anchor="middle" x="544.382" y="-1423.2" font-family="Courier,monospace" font-size="11.00">ObjectExporter</text>
</g>
<!-- \\Dephpug\\Exporter\\iExporter -->
<g id="node24" class="node"><title>\\Dephpug\\Exporter\\iExporter</title>
<polygon fill="none" stroke="black" points="345.941,-1228 268.941,-1228 268.941,-1192 345.941,-1192 345.941,-1228"/>
<text text-anchor="middle" x="307.441" y="-1207.2" font-family="Courier,monospace" font-size="11.00">iExporter</text>
</g>
<!-- \\Dephpug\\Exporter\\Type\\ObjectExporter&#45;&gt;\\Dephpug\\Exporter\\iExporter -->
<g id="edge3" class="edge"><title>\\Dephpug\\Exporter\\Type\\ObjectExporter&#45;&gt;\\Dephpug\\Exporter\\iExporter</title>
<path fill="none" stroke="black" stroke-dasharray="1,5" d="M488.824,-1411.63C482.24,-1408.26 476.035,-1404.1 470.882,-1399 414.412,-1343.06 467.04,-1283.95 406.882,-1232 393.033,-1220.04 374.089,-1214.18 356.516,-1211.43"/>
<polygon fill="none" stroke="black" points="356.737,-1207.93 346.377,-1210.15 355.859,-1214.87 356.737,-1207.93"/>
</g>
<!-- \\Dephpug\\Exporter\\Type\\UnknownExporter -->
<g id="node15" class="node"><title>\\Dephpug\\Exporter\\Type\\UnknownExporter</title>
<polygon fill="none" stroke="black" points="603.382,-1390 485.382,-1390 485.382,-1354 603.382,-1354 603.382,-1390"/>
<text text-anchor="middle" x="544.382" y="-1369.2" font-family="Courier,monospace" font-size="11.00">UnknownExporter</text>
</g>
<!-- \\Dephpug\\Exporter\\Type\\UnknownExporter&#45;&gt;\\Dephpug\\Exporter\\iExporter -->
<g id="edge10" class="edge"><title>\\Dephpug\\Exporter\\Type\\UnknownExporter&#45;&gt;\\Dephpug\\Exporter\\iExporter</title>
<path fill="none" stroke="black" stroke-dasharray="1,5" d="M485.096,-1354.61C480.011,-1351.85 475.175,-1348.66 470.882,-1345 426.961,-1307.55 453.258,-1266.36 406.882,-1232 392.297,-1221.19 373.384,-1215.53 356.039,-1212.62"/>
<polygon fill="none" stroke="black" points="356.444,-1209.14 346.052,-1211.2 355.462,-1216.07 356.444,-1209.14"/>
</g>
<!-- \\Dephpug\\Exporter\\Type\\ArrayExporter -->
<g id="node16" class="node"><title>\\Dephpug\\Exporter\\Type\\ArrayExporter</title>
<polygon fill="none" stroke="black" points="596.382,-1336 492.382,-1336 492.382,-1300 596.382,-1300 596.382,-1336"/>
<text text-anchor="middle" x="544.382" y="-1315.2" font-family="Courier,monospace" font-size="11.00">ArrayExporter</text>
</g>
<!-- \\Dephpug\\Exporter\\Type\\ArrayExporter&#45;&gt;\\Dephpug\\Exporter\\iExporter -->
<g id="edge13" class="edge"><title>\\Dephpug\\Exporter\\Type\\ArrayExporter&#45;&gt;\\Dephpug\\Exporter\\iExporter</title>
<path fill="none" stroke="black" stroke-dasharray="1,5" d="M492.274,-1301.84C484.873,-1298.69 477.521,-1295.08 470.882,-1291 437.914,-1270.76 441.156,-1249.94 406.882,-1232 391.337,-1223.86 372.879,-1218.72 356.17,-1215.48"/>
<polygon fill="none" stroke="black" points="356.489,-1211.99 346.034,-1213.7 355.277,-1218.88 356.489,-1211.99"/>
</g>
<!-- \\Dephpug\\Exporter\\Type\\FloatExporter -->
<g id="node17" class="node"><title>\\Dephpug\\Exporter\\Type\\FloatExporter</title>
<polygon fill="none" stroke="black" points="596.382,-1282 492.382,-1282 492.382,-1246 596.382,-1246 596.382,-1282"/>
<text text-anchor="middle" x="544.382" y="-1261.2" font-family="Courier,monospace" font-size="11.00">FloatExporter</text>
</g>
<!-- \\Dephpug\\Exporter\\Type\\FloatExporter&#45;&gt;\\Dephpug\\Exporter\\iExporter -->
<g id="edge14" class="edge"><title>\\Dephpug\\Exporter\\Type\\FloatExporter&#45;&gt;\\Dephpug\\Exporter\\iExporter</title>
<path fill="none" stroke="black" stroke-dasharray="1,5" d="M492.204,-1251.87C466.597,-1245.83 435.117,-1238.46 406.882,-1232 390.499,-1228.25 372.563,-1224.22 356.543,-1220.64"/>
<polygon fill="none" stroke="black" points="356.848,-1217.13 346.327,-1218.37 355.327,-1223.96 356.848,-1217.13"/>
</g>
<!-- \\Dephpug\\Exporter\\Type\\BoolExporter -->
<g id="node18" class="node"><title>\\Dephpug\\Exporter\\Type\\BoolExporter</title>
<polygon fill="none" stroke="black" points="593.382,-1228 495.382,-1228 495.382,-1192 593.382,-1192 593.382,-1228"/>
<text text-anchor="middle" x="544.382" y="-1207.2" font-family="Courier,monospace" font-size="11.00">BoolExporter</text>
</g>
<!-- \\Dephpug\\Exporter\\Type\\BoolExporter&#45;&gt;\\Dephpug\\Exporter\\iExporter -->
<g id="edge17" class="edge"><title>\\Dephpug\\Exporter\\Type\\BoolExporter&#45;&gt;\\Dephpug\\Exporter\\iExporter</title>
<path fill="none" stroke="black" stroke-dasharray="1,5" d="M495.272,-1210C454.641,-1210 396.762,-1210 356.224,-1210"/>
<polygon fill="none" stroke="black" points="356.055,-1206.5 346.055,-1210 356.055,-1213.5 356.055,-1206.5"/>
</g>
<!-- \\Dephpug\\Exporter\\Type\\NullExporter -->
<g id="node19" class="node"><title>\\Dephpug\\Exporter\\Type\\NullExporter</title>
<polygon fill="none" stroke="black" points="593.382,-1174 495.382,-1174 495.382,-1138 593.382,-1138 593.382,-1174"/>
<text text-anchor="middle" x="544.382" y="-1153.2" font-family="Courier,monospace" font-size="11.00">NullExporter</text>
</g>
<!-- \\Dephpug\\Exporter\\Type\\NullExporter&#45;&gt;\\Dephpug\\Exporter\\iExporter -->
<g id="edge18" class="edge"><title>\\Dephpug\\Exporter\\Type\\NullExporter&#45;&gt;\\Dephpug\\Exporter\\iExporter</title>
<path fill="none" stroke="black" stroke-dasharray="1,5" d="M495.272,-1167.06C454.554,-1176.42 396.516,-1189.76 355.967,-1199.08"/>
<polygon fill="none" stroke="black" points="355.017,-1195.7 346.055,-1201.35 356.585,-1202.53 355.017,-1195.7"/>
</g>
<!-- \\Dephpug\\Exporter\\Type\\ResourceExporter -->
<g id="node20" class="node"><title>\\Dephpug\\Exporter\\Type\\ResourceExporter</title>
<polygon fill="none" stroke="black" points="606.882,-1120 481.882,-1120 481.882,-1084 606.882,-1084 606.882,-1120"/>
<text text-anchor="middle" x="544.382" y="-1099.2" font-family="Courier,monospace" font-size="11.00">ResourceExporter</text>
</g>
<!-- \\Dephpug\\Exporter\\Type\\ResourceExporter&#45;&gt;\\Dephpug\\Exporter\\iExporter -->
<g id="edge20" class="edge"><title>\\Dephpug\\Exporter\\Type\\ResourceExporter&#45;&gt;\\Dephpug\\Exporter\\iExporter</title>
<path fill="none" stroke="black" stroke-dasharray="1,5" d="M492.795,-1120.05C485.395,-1122.92 477.905,-1125.95 470.882,-1129 429.575,-1146.93 383.771,-1170.08 351.359,-1187.04"/>
<polygon fill="none" stroke="black" points="349.394,-1184.12 342.17,-1191.87 352.65,-1190.31 349.394,-1184.12"/>
</g>
<!-- \\Dephpug\\Exporter\\Type\\IntegerExporter -->
<g id="node21" class="node"><title>\\Dephpug\\Exporter\\Type\\IntegerExporter</title>
<polygon fill="none" stroke="black" points="603.382,-1066 485.382,-1066 485.382,-1030 603.382,-1030 603.382,-1066"/>
<text text-anchor="middle" x="544.382" y="-1045.2" font-family="Courier,monospace" font-size="11.00">IntegerExporter</text>
</g>
<!-- \\Dephpug\\Exporter\\Type\\IntegerExporter&#45;&gt;\\Dephpug\\Exporter\\iExporter -->
<g id="edge21" class="edge"><title>\\Dephpug\\Exporter\\Type\\IntegerExporter&#45;&gt;\\Dephpug\\Exporter\\iExporter</title>
<path fill="none" stroke="black" stroke-dasharray="1,5" d="M488.622,-1066.11C482.497,-1068.8 476.461,-1071.77 470.882,-1075 417.057,-1106.17 363.243,-1155.31 333.057,-1184.91"/>
<polygon fill="none" stroke="black" points="330.548,-1182.47 325.906,-1192 335.474,-1187.44 330.548,-1182.47"/>
</g>
<!-- \\Dephpug\\Exporter\\Type\\StringExporter -->
<g id="node22" class="node"><title>\\Dephpug\\Exporter\\Type\\StringExporter</title>
<polygon fill="none" stroke="black" points="599.882,-1012 488.882,-1012 488.882,-976 599.882,-976 599.882,-1012"/>
<text text-anchor="middle" x="544.382" y="-991.2" font-family="Courier,monospace" font-size="11.00">StringExporter</text>
</g>
<!-- \\Dephpug\\Exporter\\Type\\StringExporter&#45;&gt;\\Dephpug\\Exporter\\iExporter -->
<g id="edge23" class="edge"><title>\\Dephpug\\Exporter\\Type\\StringExporter&#45;&gt;\\Dephpug\\Exporter\\iExporter</title>
<path fill="none" stroke="black" stroke-dasharray="1,5" d="M488.802,-1010.85C482.515,-1013.79 476.392,-1017.16 470.882,-1021 406.036,-1066.19 351.019,-1143.13 324.824,-1183.49"/>
<polygon fill="none" stroke="black" points="321.826,-1181.69 319.384,-1191.99 327.722,-1185.46 321.826,-1181.69"/>
</g>
<!-- \\Dephpug\\Exporter\\Exporter -->
<g id="node23" class="node"><title>\\Dephpug\\Exporter\\Exporter</title>
<polygon fill="none" stroke="black" points="579.882,-958 508.882,-958 508.882,-922 579.882,-922 579.882,-958"/>
<text text-anchor="middle" x="544.382" y="-937.2" font-family="Courier,monospace" font-size="11.00">Exporter</text>
</g>
<!-- \\Dephpug\\Exception\\ExitProgram -->
<g id="node25" class="node"><title>\\Dephpug\\Exception\\ExitProgram</title>
<polygon fill="none" stroke="black" points="589.882,-744 498.882,-744 498.882,-708 589.882,-708 589.882,-744"/>
<text text-anchor="middle" x="544.382" y="-723.2" font-family="Courier,monospace" font-size="11.00">ExitProgram</text>
</g>
<!-- \\Exception -->
<g id="node39" class="node"><title>\\Exception</title>
<ellipse fill="none" stroke="black" cx="307.441" cy="-18" rx="40.8928" ry="18"/>
<text text-anchor="middle" x="307.441" y="-14.3" font-family="Times,serif" font-size="14.00" fill="gray">xception</text>
</g>
<!-- \\Dephpug\\Exception\\ExitProgram&#45;&gt;\\Exception -->
<g id="edge6" class="edge"><title>\\Dephpug\\Exception\\ExitProgram&#45;&gt;\\Exception</title>
<path fill="none" stroke="black" d="M498.873,-718.064C488.177,-714.064 477.845,-708.048 470.882,-699 381.822,-583.275 500.992,-156.657 406.882,-45 395.044,-30.954 376.653,-23.856 358.957,-20.3823"/>
<polygon fill="none" stroke="black" points="359.101,-16.8607 348.672,-18.7307 357.991,-23.7721 359.101,-16.8607"/>
</g>
<!-- \\Dephpug\\Exception\\SocketException -->
<g id="node26" class="node"><title>\\Dephpug\\Exception\\SocketException</title>
<polygon fill="none" stroke="black" points="603.382,-690 485.382,-690 485.382,-654 603.382,-654 603.382,-690"/>
<text text-anchor="middle" x="544.382" y="-669.2" font-family="Courier,monospace" font-size="11.00">SocketException</text>
</g>
<!-- \\Dephpug\\Exception\\SocketException&#45;&gt;\\Exception -->
<g id="edge15" class="edge"><title>\\Dephpug\\Exception\\SocketException&#45;&gt;\\Exception</title>
<path fill="none" stroke="black" d="M485.058,-657.366C479.648,-654.051 474.754,-649.986 470.882,-645 306.398,-433.186 580.607,-249.303 406.882,-45 394.983,-31.0057 376.58,-23.9176 358.892,-20.4372"/>
<polygon fill="none" stroke="black" points="359.044,-16.9166 348.614,-18.78 357.929,-23.8274 359.044,-16.9166"/>
</g>
<!-- \\Dephpug\\Exception\\QuitException -->
<g id="node27" class="node"><title>\\Dephpug\\Exception\\QuitException</title>
<polygon fill="none" stroke="black" points="596.382,-636 492.382,-636 492.382,-600 596.382,-600 596.382,-636"/>
<text text-anchor="middle" x="544.382" y="-615.2" font-family="Courier,monospace" font-size="11.00">QuitException</text>
</g>
<!-- \\Dephpug\\Exception\\QuitException&#45;&gt;\\Exception -->
<g id="edge19" class="edge"><title>\\Dephpug\\Exception\\QuitException&#45;&gt;\\Exception</title>
<path fill="none" stroke="black" d="M492.051,-610.643C483.962,-607.352 476.448,-602.663 470.882,-596 312.833,-406.791 567.464,-232.064 406.882,-45 394.917,-31.0616 376.502,-23.9841 358.822,-20.4966"/>
<polygon fill="none" stroke="black" points="358.983,-16.9771 348.552,-18.8334 357.864,-23.8871 358.983,-16.9771"/>
</g>
<!-- \\Dephpug\\PluginReflection -->
<g id="node28" class="node"><title>\\Dephpug\\PluginReflection</title>
<polygon fill="none" stroke="black" points="606.882,-582 481.882,-582 481.882,-546 606.882,-546 606.882,-582"/>
<text text-anchor="start" x="510.382" y="-567.2" font-family="Courier,monospace" font-size="11.00">«abstract»</text>
<text text-anchor="start" x="489.882" y="-555.2" font-family="Courier,monospace" font-size="11.00">PluginReflection</text>
</g>
<!-- \\Dephpug\\CommandList -->
<g id="node29" class="node"><title>\\Dephpug\\CommandList</title>
<polygon fill="none" stroke="black" points="589.882,-528 498.882,-528 498.882,-492 589.882,-492 589.882,-528"/>
<text text-anchor="middle" x="544.382" y="-507.2" font-family="Courier,monospace" font-size="11.00">CommandList</text>
</g>
<!-- \\Dephpug\\Command&#45;&gt;\\Dephpug\\Interfaces\\iCommand -->
<g id="edge8" class="edge"><title>\\Dephpug\\Command&#45;&gt;\\Dephpug\\Interfaces\\iCommand</title>
<path fill="none" stroke="black" stroke-dasharray="1,5" d="M265.309,-1728.02C226.845,-1732.71 169.54,-1739.69 129.902,-1744.53"/>
<polygon fill="none" stroke="black" points="129.228,-1741.08 119.725,-1745.77 130.075,-1748.03 129.228,-1741.08"/>
</g>
<!-- \\Dephpug\\Command&#45;&gt;\\Dephpug\\Interfaces\\iCore -->
<g id="edge9" class="edge"><title>\\Dephpug\\Command&#45;&gt;\\Dephpug\\Interfaces\\iCore</title>
<path fill="none" stroke="black" stroke-dasharray="1,5" d="M265.309,-1717.98C223.86,-1712.93 160.531,-1705.21 121.009,-1700.39"/>
<polygon fill="none" stroke="black" points="121.367,-1696.91 111.017,-1699.17 120.519,-1703.86 121.367,-1696.91"/>
</g>
<!-- \\Dephpug\\Core -->
<g id="node31" class="node"><title>\\Dephpug\\Core</title>
<polygon fill="none" stroke="black" points="571.382,-474 517.382,-474 517.382,-438 571.382,-438 571.382,-474"/>
<text text-anchor="middle" x="544.382" y="-453.2" font-family="Courier,monospace" font-size="11.00">Core</text>
</g>
<!-- \\Dephpug\\Config -->
<g id="node32" class="node"><title>\\Dephpug\\Config</title>
<polygon fill="none" stroke="black" points="572.882,-420 515.882,-420 515.882,-384 572.882,-384 572.882,-420"/>
<text text-anchor="middle" x="544.382" y="-399.2" font-family="Courier,monospace" font-size="11.00">Config</text>
</g>
<!-- \\Dephpug\\MessageParseList -->
<g id="node33" class="node"><title>\\Dephpug\\MessageParseList</title>
<polygon fill="none" stroke="black" points="606.882,-366 481.882,-366 481.882,-330 606.882,-330 606.882,-366"/>
<text text-anchor="middle" x="544.382" y="-345.2" font-family="Courier,monospace" font-size="11.00">MessageParseList</text>
</g>
<!-- \\Dephpug\\Readline -->
<g id="node34" class="node"><title>\\Dephpug\\Readline</title>
<polygon fill="none" stroke="black" points="579.882,-312 508.882,-312 508.882,-276 579.882,-276 579.882,-312"/>
<text text-anchor="middle" x="544.382" y="-291.2" font-family="Courier,monospace" font-size="11.00">Readline</text>
</g>
<!-- \\Dephpug\\Dephpugger -->
<g id="node35" class="node"><title>\\Dephpug\\Dephpugger</title>
<polygon fill="none" stroke="black" points="586.382,-258 502.382,-258 502.382,-222 586.382,-222 586.382,-258"/>
<text text-anchor="middle" x="544.382" y="-237.2" font-family="Courier,monospace" font-size="11.00">Dephpugger</text>
</g>
<!-- \\Dephpug\\MessageParse -->
<g id="node36" class="node"><title>\\Dephpug\\MessageParse</title>
<polygon fill="none" stroke="black" points="593.382,-204 495.382,-204 495.382,-168 593.382,-168 593.382,-204"/>
<text text-anchor="middle" x="544.382" y="-183.2" font-family="Courier,monospace" font-size="11.00">MessageParse</text>
</g>
<!-- \\Dephpug\\FilePrinter -->
<g id="node37" class="node"><title>\\Dephpug\\FilePrinter</title>
<polygon fill="none" stroke="black" points="589.882,-150 498.882,-150 498.882,-114 589.882,-114 589.882,-150"/>
<text text-anchor="middle" x="544.382" y="-129.2" font-family="Courier,monospace" font-size="11.00">FilePrinter</text>
</g>
</g>
</svg>
